<?xml version="1.0" ?><svg height="28px" version="1.1" viewBox="0 0 28 28" width="28px" xmlns="http://www.w3.org/2000/svg" xmlns:sketch="http://www.bohemiancoding.com/sketch/ns" xmlns:xlink="http://www.w3.org/1999/xlink"><title/><desc/><defs/><g fill="none" fill-rule="evenodd" id="Page-1" stroke="none" stroke-width="1"><g id="Symbolicons-Color" transform="translate(-812.000000, -364.000000)"><g id="marshmallow-stick" transform="translate(812.000000, 364.000000)"><path d="M26,0.586 L14,12.586 C13.812,12.774 13.707,13.028 13.707,13.293 L13.707,14.675 L10.26,16.398 C10.164,16.447 10.076,16.51 10,16.586 L9,17.586 L9,16 L7,16 L7,19.586 L0,26.586 L1.414,28 L11.3,18.115 L15.154,16.188 C15.493,16.018 15.707,15.672 15.707,15.293 L15.707,13.707 L27.414,2 L26,0.586" fill="#8C5A3C" id="Fill-18"/><path d="M22.91,12.08 C21.949,13.041 20.376,13.041 19.415,12.08 L15.92,8.585 C14.959,7.624 14.959,6.051 15.92,5.09 L20.289,0.721 C21.25,-0.24 22.823,-0.24 23.784,0.721 L27.279,4.216 C28.24,5.177 28.24,6.75 27.279,7.711 L22.91,12.08" fill="#ECECEC" id="Fill-568"/></g></g></g></svg>